<svg width="48" height="48" viewBox="0 0 48 48" fill="none" xmlns="http://www.w3.org/2000/svg">
<circle cx="23.7114" cy="23.7424" r="23.5" fill="#F5F6F8"/>
<path opacity="0.958" fill-rule="evenodd" clip-rule="evenodd" d="M22.8934 12.6514C24.0897 12.5382 24.9732 13.0024 25.5438 14.044C26.7115 14.0814 27.8794 14.1039 29.0477 14.1114C30.2851 14.2108 31.0563 14.8622 31.3611 16.0655C31.3911 21.4711 31.3911 26.8767 31.3611 32.2823C31.1133 33.4135 30.4171 34.0649 29.2723 34.2364C25.2892 34.2663 21.3061 34.2663 17.323 34.2364C16.289 34.0752 15.6077 33.4987 15.2791 32.5069C15.2271 29.7308 15.2046 26.9532 15.2117 24.1739C15.2192 21.4711 15.2267 18.7683 15.2342 16.0655C15.539 14.8622 16.3102 14.2108 17.5477 14.1114C18.7156 14.0964 19.8836 14.0814 21.0516 14.0665C21.4393 13.2965 22.0533 12.8248 22.8934 12.6514ZM23.0281 13.7745C23.9329 13.7294 24.4945 14.1487 24.7127 15.0323C24.7672 15.1019 24.8346 15.1543 24.9148 15.1895C25.3488 15.212 25.7831 15.2194 26.2176 15.212C26.3095 15.8584 26.0998 16.375 25.5887 16.7618C25.421 16.8576 25.2413 16.9175 25.0496 16.9415C23.8816 16.9714 22.7137 16.9714 21.5457 16.9415C21.0507 16.87 20.6987 16.608 20.49 16.1553C20.4007 15.8475 20.3633 15.533 20.3777 15.212C20.8466 15.2322 21.3108 15.2098 21.7703 15.1446C21.8077 15.1072 21.8452 15.0697 21.8826 15.0323C22.027 14.3867 22.4088 13.9674 23.0281 13.7745ZM17.5477 15.212C18.1167 15.212 18.6857 15.212 19.2547 15.212C19.1613 16.4862 19.6854 17.3921 20.827 17.9297C20.9297 17.9667 21.0346 17.9966 21.1414 18.0196C21.8588 18.069 22.5776 18.0915 23.2977 18.087C24.0178 18.0915 24.7365 18.069 25.4539 18.0196C26.5756 17.7215 27.197 16.9953 27.3182 15.8409C27.3406 15.6318 27.3481 15.4221 27.3406 15.212C27.9098 15.2045 28.4789 15.212 29.0477 15.2344C29.6573 15.2957 30.0541 15.6176 30.2381 16.2002C30.2681 21.516 30.2681 26.8318 30.2381 32.1475C30.0873 32.6876 29.7354 33.0095 29.1824 33.1133C25.2593 33.1433 21.3361 33.1433 17.4129 33.1133C16.8599 33.0095 16.508 32.6876 16.3572 32.1475C16.3273 26.8318 16.3273 21.516 16.3572 16.2002C16.5592 15.631 16.956 15.3016 17.5477 15.212Z" fill="#3F53BA"/>
<path opacity="0.944" fill-rule="evenodd" clip-rule="evenodd" d="M26.218 22.4443C26.8435 22.4974 27.0307 22.8119 26.7795 23.3877C25.4543 24.6829 24.1291 25.9782 22.8039 27.2734C22.5233 27.4335 22.2538 27.4186 21.9953 27.2285C21.2204 26.4687 20.4642 25.6975 19.7268 24.915C19.6513 24.3767 19.8834 24.1296 20.4231 24.1738C21.13 24.7458 21.7963 25.3672 22.4221 26.0381C23.6125 24.8776 24.803 23.7171 25.9934 22.5566C26.0749 22.5226 26.1498 22.4852 26.218 22.4443Z" fill="#3F53BA"/>
</svg>
