<svg width="23" height="22" viewBox="0 0 23 22" fill="none" xmlns="http://www.w3.org/2000/svg">
<g clip-path="url(#clip0_738_1158)">
<path opacity="0.959" fill-rule="evenodd" clip-rule="evenodd" d="M5.38253 -0.0214844C9.77965 -0.0214844 14.1768 -0.0214844 18.5739 -0.0214844C19.116 0.15564 19.4383 0.528034 19.5407 1.0957C19.5694 7.69858 19.5694 14.3014 19.5407 20.9043C19.4523 21.4549 19.1443 21.813 18.6169 21.9785C14.2054 21.9785 9.794 21.9785 5.38253 21.9785C4.18916 21.7091 3.4372 20.9786 3.12667 19.7871C3.07704 16.852 3.05556 13.9158 3.06222 10.9785C3.05556 8.04121 3.07704 5.10499 3.12667 2.16992C3.43737 0.978274 4.18932 0.247807 5.38253 -0.0214844ZM5.64034 1.05273C7.65987 1.05273 9.6794 1.05273 11.6989 1.05273C11.6918 2.91477 11.6989 4.77675 11.7204 6.63867C11.8383 7.09307 12.1319 7.33653 12.6013 7.36914C12.902 7.33691 13.1527 7.20801 13.3532 6.98242C13.6683 6.49546 13.9835 6.00845 14.2985 5.52148C14.5707 5.95117 14.8428 6.38086 15.1149 6.81055C15.6012 7.48013 16.1455 7.53745 16.7478 6.98242C16.7907 6.89648 16.8337 6.81055 16.8767 6.72461C16.8982 4.83403 16.9053 2.94342 16.8982 1.05273C17.371 1.04558 17.8437 1.05274 18.3161 1.07422C18.3663 1.0957 18.4021 1.13151 18.4235 1.18164C18.445 6.26626 18.4522 11.3509 18.445 16.4355C14.2353 16.3857 10.0244 16.3786 5.81222 16.4141C5.22685 16.4349 4.69692 16.614 4.22237 16.9512C4.17224 12.1244 4.16508 7.2976 4.20089 2.4707C4.39264 1.69883 4.87245 1.22617 5.64034 1.05273ZM12.7732 1.05273C13.7901 1.05273 14.807 1.05273 15.8239 1.05273C15.8311 2.64264 15.8239 4.23249 15.8024 5.82227C15.4288 5.25512 15.0635 4.68218 14.7067 4.10352C14.3561 3.84209 14.0481 3.88506 13.7829 4.23242C13.4535 4.76236 13.1241 5.29233 12.7946 5.82227C12.7732 4.23249 12.766 2.64264 12.7732 1.05273ZM5.68331 17.5098C9.89429 17.5026 14.1052 17.5098 18.3161 17.5312C18.3555 17.5473 18.3913 17.5688 18.4235 17.5957C18.445 17.9535 18.4522 18.3116 18.445 18.6699C14.4203 18.6627 10.3955 18.6699 6.37081 18.6914C6.04966 18.7238 5.87779 18.9029 5.85518 19.2285C5.87779 19.5541 6.04966 19.7332 6.37081 19.7656C10.3956 19.7816 14.4203 19.7744 18.445 19.7441C18.4522 20.1025 18.445 20.4606 18.4235 20.8184C18.4021 20.8398 18.3806 20.8613 18.3591 20.8828C14.1052 20.9115 9.85128 20.9115 5.59737 20.8828C4.38992 20.5091 3.9674 19.7141 4.32979 18.498C4.62709 17.9525 5.07827 17.623 5.68331 17.5098Z" fill="#3F53BA"/>
</g>
<defs>
<clipPath id="clip0_738_1158">
<rect width="22" height="22" fill="white" transform="translate(0.333496)"/>
</clipPath>
</defs>
</svg>
