<svg width="4" height="16" viewBox="0 0 4 16" fill="none" xmlns="http://www.w3.org/2000/svg">
<path d="M3.562 1.71589C3.562 2.67789 2.808 3.48389 1.768 3.48389C0.727999 3.48389 0 2.67789 0 1.71589C0 0.779887 0.727999 -0.000113487 1.768 -0.000113487C2.808 -0.000113487 3.562 0.779887 3.562 1.71589Z" fill="#3F53BA"/>
<path d="M3.562 7.60651C3.562 8.56851 2.808 9.37451 1.768 9.37451C0.727999 9.37451 0 8.56851 0 7.60651C0 6.67051 0.727999 5.89051 1.768 5.89051C2.808 5.89051 3.562 6.67051 3.562 7.60651Z" fill="#3F53BA"/>
<path d="M3.562 13.4971C3.562 14.4591 2.808 15.2651 1.768 15.2651C0.727999 15.2651 0 14.4591 0 13.4971C0 12.5611 0.727999 11.7811 1.768 11.7811C2.808 11.7811 3.562 12.5611 3.562 13.4971Z" fill="#3F53BA"/>
</svg>
