<svg width="48" height="48" viewBox="0 0 48 48" fill="none" xmlns="http://www.w3.org/2000/svg">
<rect x="0.211426" y="0.242432" width="47" height="47" rx="23.5" fill="#F5F6F8"/>
<path opacity="0.958" fill-rule="evenodd" clip-rule="evenodd" d="M17.5778 13.757C21.6901 13.7448 25.8023 13.757 29.9144 13.7938C29.9817 13.8212 30.0429 13.8579 30.098 13.9039C30.2185 15.3415 30.243 16.7857 30.1714 18.2364C30.0009 19.1157 29.6337 19.899 29.0699 20.5862C28.0603 21.6077 27.0934 22.6602 26.1694 23.7438C27.0934 24.8274 28.0603 25.8799 29.0699 26.9014C29.6337 27.5885 30.0009 28.3718 30.1714 29.2512C30.2204 30.6464 30.2204 32.0416 30.1714 33.4368C30.1439 33.5041 30.1072 33.5653 30.0613 33.6204C27.9624 33.7055 25.8573 33.7422 23.7461 33.7305C21.69 33.7183 19.6339 33.7061 17.5778 33.6938C17.5106 33.6664 17.4493 33.6297 17.3942 33.5837C17.3103 32.8563 17.2736 32.122 17.2841 31.3807C17.0503 29.8188 17.3807 28.3992 18.2754 27.1217C19.1076 26.2405 19.9399 25.3593 20.7721 24.4781C20.9723 24.2419 21.1559 23.9971 21.3228 23.7438C20.3988 22.6602 19.4319 21.6077 18.4223 20.5862C17.4184 19.2755 17.039 17.7946 17.2841 16.1436C17.2964 15.446 17.3085 14.7484 17.3208 14.0508C17.3715 13.9149 17.4571 13.817 17.5778 13.757ZM18.459 14.932C21.9837 14.932 25.5085 14.932 29.0332 14.932C29.0455 15.7401 29.0332 16.5478 28.9965 17.3552C28.9615 18.1596 28.7166 18.8939 28.2622 19.5582C27.1827 20.662 26.1302 21.7879 25.1046 22.936C24.8598 23.4745 24.8598 24.0131 25.1046 24.5515C26.0592 25.5551 27.0138 26.5587 27.9684 27.5623C28.3143 27.9719 28.5958 28.4248 28.8129 28.9207C25.9366 28.9434 23.0605 28.9801 20.1847 29.0309C19.6829 29.0064 19.1811 28.9819 18.6793 28.9575C18.887 28.4435 19.1685 27.9785 19.5238 27.5623C20.4784 26.5587 21.433 25.5551 22.3876 24.5515C22.6909 23.8653 22.6175 23.2289 22.1673 22.6423C21.2127 21.6387 20.2581 20.6352 19.3035 19.6316C18.8015 18.9581 18.5322 18.1992 18.4957 17.3552C18.459 16.5478 18.4467 15.7401 18.459 14.932ZM27.5646 30.2058C28.0541 30.2058 28.5436 30.2058 29.0332 30.2058C29.0332 30.9891 29.0332 31.7723 29.0332 32.5556C25.5085 32.5556 21.9837 32.5556 18.459 32.5556C18.459 31.7969 18.459 31.038 18.459 30.2792C21.5066 30.3036 24.5419 30.2792 27.5646 30.2058Z" fill="#3F53BA"/>
</svg>
