<svg width="48" height="48" fill="none" xmlns="http://www.w3.org/2000/svg"><circle cx="23.711" cy="23.742" r="23.5" fill="#F5F6F8"/><path opacity=".958" fill-rule="evenodd" clip-rule="evenodd" d="M22.893 12.651c1.197-.113 2.08.351 2.65 1.393a136.9 136.9 0 003.505.067c1.237.1 2.008.751 2.313 1.954.03 5.406.03 10.812 0 16.217-.248 1.132-.944 1.783-2.089 1.954-3.983.03-7.966.03-11.949 0-1.034-.16-1.715-.737-2.044-1.73a391.524 391.524 0 01-.067-8.332l.022-8.108c.305-1.204 1.076-1.855 2.314-1.955l3.504-.045c.387-.77 1.001-1.241 1.841-1.415zm.135 1.123c.905-.045 1.466.375 1.685 1.258a.52.52 0 00.202.158c.434.022.868.03 1.303.022.091.646-.118 1.163-.63 1.55a1.436 1.436 0 01-.538.18c-1.168.03-2.336.03-3.504 0a1.3 1.3 0 01-1.056-.787 2.897 2.897 0 01-.112-.943c.469.02.933-.002 1.392-.067l.113-.113c.144-.645.526-1.065 1.145-1.258zm-5.48 1.438h1.707c-.094 1.274.43 2.18 1.572 2.718.103.037.208.067.314.09.718.049 1.437.072 2.157.067a28.76 28.76 0 002.156-.067c1.122-.299 1.743-1.025 1.864-2.18.023-.208.03-.418.023-.628.569-.008 1.138 0 1.707.022.61.062 1.006.384 1.19.966.03 5.316.03 10.632 0 15.948-.15.54-.503.861-1.056.965-3.923.03-7.846.03-11.77 0-.552-.103-.904-.425-1.055-.965-.03-5.316-.03-10.632 0-15.948.202-.569.599-.898 1.19-.988z" fill="#3F53BA"/><path opacity=".944" fill-rule="evenodd" clip-rule="evenodd" d="M26.218 22.444c.625.053.813.368.561.944l-3.975 3.885c-.28.16-.55.146-.809-.044a82.022 82.022 0 01-2.268-2.314c-.076-.538.156-.785.696-.741a19.536 19.536 0 012 1.864l3.57-3.481c.082-.034.157-.072.225-.113z" fill="#3F53BA"/></svg>