<svg width="23" height="22" fill="none" xmlns="http://www.w3.org/2000/svg"><g clip-path="url(#clip0_738_1158)"><path opacity=".959" fill-rule="evenodd" clip-rule="evenodd" d="M5.383-.021h13.19c.543.177.865.549.968 1.117.028 6.603.028 13.205 0 19.808-.089.55-.397.909-.924 1.075H5.383c-1.194-.27-1.946-1-2.256-2.192a459.39 459.39 0 01-.065-8.808c-.006-2.938.015-5.874.065-8.81C3.437.98 4.189.249 5.383-.02zm.257 1.074h6.06c-.007 1.862 0 3.724.021 5.586.118.454.412.698.881.73.301-.032.552-.161.752-.387l.946-1.46.816 1.289c.486.67 1.03.726 1.633.171l.129-.257c.021-1.891.028-3.782.021-5.672.473-.007.946 0 1.418.021.05.022.086.058.108.108.021 5.084.028 10.169.021 15.254-4.21-.05-8.42-.057-12.633-.022a2.86 2.86 0 00-1.59.537c-.05-4.827-.057-9.653-.021-14.48.192-.772.671-1.245 1.44-1.418zm7.133 0h3.05c.008 1.59 0 3.18-.02 4.77a68.046 68.046 0 01-1.096-1.72c-.35-.26-.659-.218-.924.13l-.988 1.59c-.022-1.59-.029-3.18-.022-4.77zM5.683 17.51c4.211-.007 8.422 0 12.633.021.04.016.075.038.108.065.021.357.028.716.021 1.074-4.025-.007-8.05 0-12.074.021-.321.033-.493.212-.516.538.023.325.195.504.516.537 4.025.016 8.05.008 12.074-.022.007.358 0 .717-.021 1.074l-.065.065c-4.254.029-8.508.029-12.762 0-1.207-.374-1.63-1.169-1.267-2.385a1.864 1.864 0 011.353-.988z" fill="#3F53BA"/></g><defs><clipPath id="clip0_738_1158"><path fill="#fff" transform="translate(.333)" d="M0 0h22v22H0z"/></clipPath></defs></svg>