<svg width="48" height="48" fill="none" xmlns="http://www.w3.org/2000/svg"><rect x=".211" y=".242" width="47" height="47" rx="23.5" fill="#F5F6F8"/><path opacity=".958" fill-rule="evenodd" clip-rule="evenodd" d="M17.578 13.757c4.112-.012 8.224 0 12.336.037a.692.692 0 01.184.11c.12 1.438.145 2.882.073 4.332a5.212 5.212 0 01-1.101 2.35 58.351 58.351 0 00-2.9 3.158 58.351 58.351 0 002.9 3.157 5.21 5.21 0 011.101 2.35c.05 1.395.05 2.79 0 4.186a.697.697 0 01-.11.183 137.11 137.11 0 01-6.315.11l-6.168-.036a.693.693 0 01-.184-.11 17.093 17.093 0 01-.11-2.203c-.234-1.562.097-2.982.991-4.26.833-.88 1.665-1.762 2.497-2.643.2-.236.384-.48.55-.734a58.351 58.351 0 00-2.9-3.158c-1.004-1.31-1.383-2.791-1.138-4.442l.037-2.093a.514.514 0 01.257-.294zm.881 1.175h10.574c.012.808 0 1.616-.037 2.423a4.148 4.148 0 01-.734 2.203 102.368 102.368 0 00-3.157 3.378 1.869 1.869 0 000 1.616l2.863 3.01c.346.41.628.863.845 1.359-2.876.022-5.752.06-8.628.11-.502-.025-1.004-.05-1.506-.073.208-.514.49-.98.845-1.396l2.864-3.01c.303-.687.23-1.323-.22-1.91l-2.864-3.01a4.016 4.016 0 01-.808-2.277 39.96 39.96 0 01-.037-2.423zm9.106 15.274h1.468v2.35H18.46v-2.277c3.048.025 6.083 0 9.106-.073z" fill="#3F53BA"/></svg>